<?xml version="1.0" encoding="utf-8"?>
<!-- Generator: Adobe Illustrator 19.0.0, SVG Export Plug-In . SVG Version: 6.00 Build 0)  -->
<svg version="1.1" id="Warstwa_1" xmlns="http://www.w3.org/2000/svg" xmlns:xlink="http://www.w3.org/1999/xlink" x="0px" y="0px"
	 viewBox="0 0 368.5 133.2" style="enable-background:new 0 0 368.5 133.2;" xml:space="preserve">
<style type="text/css">
	.st0{fill-rule:evenodd;clip-rule:evenodd;fill:none;}
	.st1{fill-rule:evenodd;clip-rule:evenodd;}
	.st2{fill-rule:evenodd;clip-rule:evenodd;fill:#FFFFFF;}
</style>
<rect class="st0" width="368.5" height="133.2"/>
<path class="st1" d="M104.6,94c5.6,2.6,12.3,3.9,19.7,3.9c7,0,12.6-2,16.3-5.7c3.1-3.1,4.8-7.2,4.8-11.8c0-10.1-8.4-14.5-14.6-17.6
	c-3.8-2-7-3.6-7-5.9c0-0.7,0.3-1.4,0.7-1.9c0.8-0.8,2.2-1.2,3.9-1.2c4,0,8.1,2.2,13.4,7.1l1.3,1.2v-1.8V45.6v-0.4l-0.3-0.2
	c-5.7-4.3-11.3-6.2-18.1-6.2c-16.2,0-20.6,11.1-20.6,17.6c0,10.7,8.4,15.1,14.6,18.3c3.4,1.7,6.3,3.3,6.3,5.1c0,1.9-1.8,3.1-4.8,3.1
	c-4.5,0-9.5-1.8-14.8-5.5l-1.2-0.8v1.5v15.2v0.5L104.6,94L104.6,94z"/>
<path class="st1" d="M194.2,84.6c-4.3-0.1-4.4-0.9-4.4-5V67.3c0-4.2-1.3-7.7-4-10.4c-3.5-3.5-9.3-5.4-16.2-5.4c-8,0-14.6,2.4-21,7.6
	l-0.3,0.2v0.4v12.7V74l1.2-1c7.1-5.4,11.4-7.2,16.9-7.2c4.7,0,5.8,1.4,6,4.2c-2,1.4-5.5,2.3-9.3,3.3c-5,1.3-10.1,2.7-12.7,5.3
	c-2.3,2.3-3.5,5.1-3.5,7.9c0,2.9,1,5.5,3,7.5c2.5,2.5,6.6,3.9,11.6,3.9c5.2,0,9.9-1.3,14-3.9c2.7,3.4,7,4.4,15.6,3.8l0.6,0l0.1-0.5
	l3.1-11.6l0.3-1L194.2,84.6L194.2,84.6z"/>
<path class="st2" d="M172.5,78.9c-1.3,0.6-2.8,1.1-4.2,1.6c-4.2,1.3-6.8,2.3-6.8,5.4c0,1.1,0.4,2.2,1.1,2.9c0.7,0.7,1.8,1.1,2.9,1.1
	c2.4,0,5.1-1,7.3-2.5c-0.2-1-0.3-2.1-0.3-3.7V78.9L172.5,78.9z"/>
<path class="st1" d="M240.3,88.3l-3.1-7.1l-0.4-0.9l-0.8,0.5c-4.8,3.3-9,4.8-13.4,4.8c-5.5,0-10.4-3.2-11.1-7.1H239h0.7l0.1-0.7
	c0.9-7.3-1-14.1-5.3-19.1c-4.2-4.8-10.3-7.5-17.1-7.5c-13.2,0-23.2,9.9-23.2,23c0,6.2,2.3,12,6.5,16.2c4.6,4.6,11.3,7.2,18.9,7.2
	c8.6,0,15.7-3,20.6-8.7l0.3-0.4L240.3,88.3L240.3,88.3z"/>
<path class="st2" d="M217.5,62.6c-2,0-3.7,0.6-4.8,1.9c-1.3,1.4-1.9,3.5-1.9,6.3h13.4C223.9,65.3,221.7,62.6,217.5,62.6
	C217.5,62.6,221.7,62.6,217.5,62.6L217.5,62.6z"/>
<path class="st1" d="M280.5,79.6c-4.6,2-7.4,2.7-10.4,2.7c-3.3,0-6.2-1-8-2.8c-1.3-1.3-2-2.9-2-4.8c0-2,0.7-3.7,2-5.1
	c1.7-1.7,4.3-2.6,7.4-2.6c3.5,0,6.8,0.8,10.5,2.5l1.1,0.5v-1.2V54.5v-0.6l-0.5-0.2c-4.4-1.5-9.4-2.3-14.2-2.3
	c-17.1,0-24.9,12.2-24.9,23.5c0,6.2,2.2,11.7,6.3,15.8c4.6,4.6,11.4,7.2,19.1,7.2c4.8,0,8.4-0.7,14.1-2.8l0.5-0.2v-0.5V80.4v-1.2
	L280.5,79.6L280.5,79.6z"/>
<path class="st1" d="M283.9,74.7c0,6.2,2.3,11.9,6.4,16c4.7,4.7,11.6,7.2,20.1,7.2c8.2,0,15.1-2.5,19.8-7.2c4.1-4.1,6.4-9.8,6.4-16
	c0-6.2-2.3-11.9-6.4-16.1c-4.7-4.7-11.5-7.1-19.9-7.1C292,51.5,283.9,63.1,283.9,74.7C283.9,74.7,283.9,63.1,283.9,74.7L283.9,74.7z
	"/>
<path class="st2" d="M302.5,74.7c0-2.2,0.7-4.1,2.1-5.5c1.4-1.4,3.3-2.1,5.6-2.1c2.3,0,4.2,0.7,5.6,2.1c1.4,1.4,2.1,3.3,2.1,5.5
	c0,4.5-3.1,7.6-7.7,7.6c-2.3,0-4.2-0.7-5.6-2.1C303.2,78.8,302.5,76.9,302.5,74.7C302.5,74.7,302.5,76.9,302.5,74.7L302.5,74.7z"/>
<path class="st1" d="M43.2,82.2c-1.7-3.5-2.7-7.4-2.7-11.6c0-14.5,11.7-26.2,26.2-26.2c5.4,0,10.5,1.6,14.6,4.5l8.4-3.6
	c-6.1-5.5-14.2-8.9-23.1-8.9c-18.9,0-34.3,15.3-34.3,34.3c0,9.5,3.9,18.2,10.2,24.4l45.7-19.7l1.6-13.2L43.2,82.2L43.2,82.2z"/>
<path class="st1" d="M91.3,61.5c-0.2-0.6-0.5-1.2-0.8-1.8l-46.7,20l1.6-13.2l45.9-19.7c2.7,2.8,5,6.1,6.6,9.8
	c0.3,0.6,0.5,1.2,0.7,1.7c1.5,3.8,2.3,7.9,2.3,12.3c0,18.9-15.3,34.3-34.3,34.3c-8.4,0-16.1-3-22.1-8.1l8.6-3.7
	c3.9,2.3,8.5,3.7,13.4,3.7c14.5,0,26.2-11.7,26.2-26.2C92.9,67.4,92.3,64.4,91.3,61.5C91.3,61.5,92.3,64.4,91.3,61.5L91.3,61.5z"/>
</svg>
